PathFileType        4      (X/Y/Z)      C:\Users\pc\Desktop\IMUTRC\Sujet_07\Sujet_07_Tpose.trc         
DataRate	CameraRate	NumFrames	NumMarkers	Units	OrigDataRate	OrigDataStartFrame	OrigNumFrames
60.0	60.0	4	64	mm	60.0	92	146
Frame#	Time	pHipOrigin			pRightASI			pLeftASI			pRightCSI			pLeftCSI			pRightIschialTub			pLeftIschialTub			pSacrum			pL5SpinalProcess			pL3SpinalProcess			pT12SpinalProcess			pIJ			pT4SpinalProcess			pT8SpinalProcess			pPX			pC7SpinalProcess			pTopOfHead			pRightAuricularis			pLeftAuricularis			pBackOfHead			pRightAcromion			pLeftAcromion			pRightArmLatEpicondyle			pRightArmMedEpicondyle			pLeftArmLatEpicondyle			pLeftArmMedEpicondyle			pRightUlnarStyloid			pRightRadialStyloid			pRightOlecranon			pLeftUlnarStyloid			pLeftRadialStyloid			pLeftOlecranon			pRightTopOfHand			pRightPinky			pRightBallHand			pLeftTopOfHand			pLeftPinky			pLeftBallHand			pRightGreaterTrochanter			pRightKneeLatEpicondyle			pRightKneeMedEpicondyle			pRightPatella			pLeftGreaterTrochanter			pLeftKneeLatEpicondyle			pLeftKneeMedEpicondyle			pLeftPatella			pRightTibialTub			pRightLatMalleolus			pRightMedMalleolus			pLeftTibialTub			pLeftLatMalleolus			pLeftMedMalleolus			pRightHeelFoot			pRightFirstMetatarsal			pRightFifthMetatarsal			pRightPivotFoot			pRightHeelCenter			pRightToe			pLeftHeelFoot			pLeftFirstMetatarsal			pLeftFifthMetatarsal			pLeftPivotFoot			pLeftHeelCenter			pLeftToe			
		X1	Y1	Z1	X2	Y2	Z2	X3	Y3	Z3	X4	Y4	Z4	X5	Y5	Z5	X6	Y6	Z6	X7	Y7	Z7	X8	Y8	Z8	X9	Y9	Z9	X10	Y10	Z10	X11	Y11	Z11	X12	Y12	Z12	X13	Y13	Z13	X14	Y14	Z14	X15	Y15	Z15	X16	Y16	Z16	X17	Y17	Z17	X18	Y18	Z18	X19	Y19	Z19	X20	Y20	Z20	X21	Y21	Z21	X22	Y22	Z22	X23	Y23	Z23	X24	Y24	Z24	X25	Y25	Z25	X26	Y26	Z26	X27	Y27	Z27	X28	Y28	Z28	X29	Y29	Z29	X30	Y30	Z30	X31	Y31	Z31	X32	Y32	Z32	X33	Y33	Z33	X34	Y34	Z34	X35	Y35	Z35	X36	Y36	Z36	X37	Y37	Z37	X38	Y38	Z38	X39	Y39	Z39	X40	Y40	Z40	X41	Y41	Z41	X42	Y42	Z42	X43	Y43	Z43	X44	Y44	Z44	X45	Y45	Z45	X46	Y46	Z46	X47	Y47	Z47	X48	Y48	Z48	X49	Y49	Z49	X50	Y50	Z50	X51	Y51	Z51	X52	Y52	Z52	X53	Y53	Z53	X54	Y54	Z54	X55	Y55	Z55	X56	Y56	Z56	X57	Y57	Z57	X58	Y58	Z58	X59	Y59	Z59	X60	Y60	Z60	X61	Y61	Z61	X62	Y62	Z62	X63	Y63	Z63	X64	Y64	Z64	
92	1.517	-1.4730628755170752	1002.55142	-4.2802802568608564	63.961817102325185	1106.8833	139.90842303434493	75.1556108162498	1105.10112	-144.1337564076177	18.83222127541567	1177.27948	112.48091593160058	28.070368839049642	1175.79432	-121.24320501643214	-62.71717592094083	943.81368	52.19357520230499	-58.13522780899683	943.07111	-64.60417172522634	-71.39630365894945	1025.34849	-7.179814590083727	-33.157858275658974	1117.72491	-6.281904796390429	-35.53728905331883	1234.68058	-7.655669796390421	-55.10001239419348	1339.53226	-9.86121903558196	47.08362010957816	1595.79513	-10.115442234060998	-98.51496934257798	1535.42372	-14.862467792564518	-80.6567912439028	1443.49286	-12.5263595900837	76.75422183969172	1471.33944	-6.704351921758717	-108.66335614987148	1594.38423	-13.176066227470487	-45.344749024503166	1862.30554	-12.203330833101111	-33.28852315411655	1756.63702	54.093053411862954	-68.44684691775703	1763.84	-86.24896352055552	-105.96790538906302	1762.72614	-2.1021238944909073	-75.57864273223608	1577.82479	175.01504917932928	-63.2516511822697	1576.56242	-202.17818648968475	-42.46937397478732	1500.22564	448.70835348997525	12.794291638738372	1470.22558	434.22665683485167	-34.90408676297798	1464.35923	-470.48594833472976	19.923924846478513	1435.02749	-453.3219301202847	76.61577061445814	1425.07698	680.1209326347163	68.5913319493169	1477.05728	692.9800481049609	-14.254216406685373	1461.01764	431.4719870384611	-19.971910488028527	1384.97789	-717.0427363105168	-40.04963118362133	1434.50769	-725.633523965573	0.4002820361771171	1426.93342	-453.9615088240158	248.18616687968034	1419.73043	774.2896692286259	177.57338121690492	1395.89375	715.257621660524	113.4379920491208	1431.6859	684.6599342623286	26.19303237682891	1380.15115	-909.7257428809643	25.39398588053308	1358.31943	-817.1534737517701	0.9998016196029766	1393.14622	-749.950967202642	-9.777029272008974	971.14047	170.64747144620776	-55.85226617202922	529.82774	152.87768272781517	-52.403418641212674	526.26338	67.15148357688241	-6.021777048607568	526.18912	109.1925838000405	2.825806166256683	970.62067	-179.54823985229797	-53.12197365275776	530.19903	-168.63410263508834	-55.76926908571707	525.96635	-82.9595924425577	-6.541548668723777	525.22378	-121.59074534558587	4.63504157794366	489.72866	111.22953249180742	-65.01027010380562	84.28233999999999	159.6803908335674	-62.48078918375017	81.31204	94.25948136325528	5.724409725402296	491.73361	-123.08350848773816	-43.20806734941179	84.35660000000001	-179.7163720539609	-45.175998264580095	80.79223	-114.22849572310386	-102.54497907994454	-7.138061680832742E-15	116.5733938275516	65.90513419040808	0.4455499999999917	135.7999391025685	39.128657037109505	3.490109999999987	210.5445379797889	74.14637802815315	2.153469999999989	179.74360605803008	-64.36250899699206	5.198029999999992	130.04353568539926	161.1031168303836	1.3366399999999872	210.91265639207091	-82.88626860439346	8.233123562730805E-15	-134.45711152738943	84.09246161564823	-0.74257999999999	-163.32571605183838	53.083564250270406	2.5247600000000148	-236.4486503283153	89.75208641911583	0.8910900000000128	-207.73249376322127	-45.58755108465581	4.901000000000009	-150.05038532873448	174.82548540991615	-0.5940599999999852	-243.8461231878663	
93	1.533	-1.5101878755170752	1002.55142	-4.215977870629862	63.887562102325184	1106.95756	140.03703646706097	75.11848081624981	1105.10112	-144.0694453611327	18.795091275415672	1177.27948	112.54522697808561	28.033238839049645	1175.79432	-121.17889396994711	-62.75430592094083	943.81368	52.25788624879001	-58.17235780899683	943.07111	-64.5398606787413	-71.36912261246442	1025.34849	-7.0783735435986985	-33.167802229173944	1117.79916	-6.116161363674403	-35.53728905331883	1234.75483	-7.655669796390421	-55.10001239419348	1339.53226	-9.86121903558196	47.12075010957816	1595.79513	-10.179753280546032	-98.47783934257798	1535.42372	-14.926778839049545	-80.6567912439028	1443.49286	-12.5263595900837	76.7270407932067	1471.26519	-6.805792968243746	-108.56192010338644	1594.45849	-13.203238613701489	-45.19623402450317	1862.37979	-12.460566358787203	-33.11282710763151	1756.71127	53.93725893266189	-68.37258691775703	1763.84	-86.37758561352558	-105.85652038906302	1762.8004	-2.295048373691968	-75.47720168575106	1577.97331	174.98786813284426	-63.15021879603873	1576.56242	-202.2053725361698	-42.46937397478732	1500.22564	448.70835348997525	12.62853954576832	1470.07706	434.2167078813367	-34.83978437674699	1464.21072	-470.44882333472975	19.951110892963555	1434.87898	-453.22049773405365	76.45001852148806	1424.85421	680.1109836812012	68.52702956308593	1476.8345	692.942923104961	-14.318527453170418	1461.01764	431.43485703846113	-19.843288395058494	1384.68086	-716.9684763105168	-39.985320137136284	1434.21066	-725.5963939655729	0.46459308266213384	1426.7849	-453.92437882401583	248.0946747867102	1419.21063	774.1510981821408	177.34331807744985	1395.44821	715.210542707009	113.2722449561507	1431.38887	684.6499766485597	26.32164580954492	1379.77986	-909.6514878809643	25.58691901998816	1358.02239	-817.0420837517701	1.0641126660880218	1392.84919	-749.913837202642	-9.749848225523934	971.14047	170.7489124926928	-55.88939617202922	529.82774	152.94199377430022	-52.403418641212674	526.26338	67.15148357688241	-5.95746600212253	526.18912	109.2297138000405	2.7886761662566784	970.62067	-179.48392880581292	-53.12197365275776	530.19903	-168.63410263508834	-55.80639908571707	525.96635	-82.89528139607268	-6.541548668723777	525.22378	-121.59074534558587	4.63504157794366	489.72866	111.22953249180742	-65.01027010380562	84.28233999999999	159.6803908335674	-62.48078918375017	81.31204	94.25948136325528	5.724409725402296	491.73361	-123.08350848773816	-43.20806734941179	84.35660000000001	-179.7163720539609	-45.175998264580095	80.79223	-114.22849572310386	-102.54497907994454	-7.138061680832742E-15	116.5733938275516	65.90513419040808	0.5197999999999917	135.7999391025685	39.128657037109505	3.490109999999987	210.5445379797889	74.08207564192216	2.153469999999989	179.70648105803008	-64.36250899699206	5.198029999999992	130.04353568539926	161.1031168303836	1.3366399999999872	210.91265639207091	-82.88626860439346	8.233123562730805E-15	-134.45711152738943	84.09246161564823	-0.74257999999999	-163.32571605183838	53.083564250270406	2.5247600000000148	-236.4486503283153	89.75208641911583	0.8910900000000128	-207.73249376322127	-45.58755108465581	4.901000000000009	-150.05038532873448	174.82548540991615	-0.5197999999999852	-243.8461231878663	
94	1.55	-1.4830068290320428	1002.55142	-4.11453682414483	63.887562102325184	1106.95756	140.03703646706097	75.14566686273484	1105.10112	-143.96801297490168	18.75796627541567	1177.35373	112.60952936431661	28.060424885534676	1175.79432	-121.0774615837161	-62.7271248744558	943.81368	52.35932729527505	-58.145185422765834	943.07111	-64.43842463225627	-71.40625261246443	1025.34849	-7.014062497113668	-33.167802229173944	1117.79916	-6.116161363674403	-35.510103006833795	1234.75483	-7.554237410159426	-55.03570134770844	1339.60652	-9.82408903558196	47.19500510957816	1595.79513	-10.308366713262059	-98.47783934257798	1535.49798	-14.926778839049545	-80.6567912439028	1443.49286	-12.5263595900837	76.76417079320669	1471.26519	-6.870104014728777	-108.56192010338644	1594.45849	-13.203238613701489	-45.1491600709882	1862.37979	-12.690620837988265	-33.102878154116546	1756.78553	53.77150683969183	-68.29833191775703	1763.76574	-86.5061990462416	-105.78226538906303	1762.8004	-2.4236618064079907	-75.44007168575105	1578.04757	174.92355708635924	-63.21452118226969	1576.56242	-202.2424975361698	-42.432243974787326	1500.29989	448.6440424434902	12.62853954576832	1470.07706	434.2167078813367	-34.802654376747	1464.0622	-470.5131343812148	19.951110892963555	1434.73046	-453.22049773405365	76.28427508877206	1424.70569	680.1010397276863	68.4255885166009	1476.68599	692.970104151446	-14.382838499655435	1461.01764	431.3977270384611	-19.778986008827474	1384.38383	-716.9313513105168	-39.985320137136284	1433.91363	-725.5963939655729	0.5660291291471822	1426.63639	-453.95155121024686	247.9289313539942	1418.9136	774.1411542286259	177.17757964473378	1395.15118	715.20059009324	113.14363152343469	1431.1661	684.5757216485597	26.385956856029907	1379.40857	-909.6143578809642	25.65122140621918	1357.72536	-817.00495875177	1.12842371257301	1392.62642	-749.876707202642	-9.786973225523937	971.14047	170.81321487892382	-55.88939617202922	529.82774	152.94199377430022	-52.37624125498168	526.26338	67.25291096311341	-5.994596002122535	526.18912	109.29402484652555	2.8158622127417203	970.62067	-179.38249641958197	-53.15910365275776	530.19903	-168.5697915886033	-55.74208803923204	525.96635	-82.85815139607269	-6.578678668723775	525.29803	-121.52643429910083	4.597911577943663	489.72866	111.29384353829244	-65.04739510380563	84.28233999999999	159.7446932197984	-62.48078918375017	81.38629	94.25948136325528	5.687284725402293	491.73361	-123.01920610150717	-43.20806734941179	84.35660000000001	-179.7163720539609	-45.175998264580095	80.79223	-114.22849572310386	-102.54497907994454	-7.138061680832742E-15	116.5733938275516	65.94226419040808	0.5197999999999917	135.73562805608344	39.16578703710951	3.490109999999987	210.48022693330387	74.08207564192216	2.153469999999989	179.70648105803008	-64.36250899699206	5.198029999999992	130.04353568539926	161.1031168303836	1.3366399999999872	210.91265639207091	-82.88626860439346	8.233123562730805E-15	-134.45711152738943	84.09246161564823	-0.74257999999999	-163.32571605183838	53.0464392502704	2.5990100000000145	-236.3843479420843	89.81638880534682	0.8910900000000128	-207.69536876322127	-45.58755108465581	4.901000000000009	-150.05038532873448	174.82548540991615	-0.5197999999999852	-243.8461231878663	
95	1.567	-1.520136829032043	1002.55142	-4.050225777659797	63.91474314881022	1106.95756	140.13847751354598	75.10853686273484	1105.10112	-143.90370192841667	18.75796627541567	1177.35373	112.60952936431661	28.02329488553468	1175.79432	-121.01315053723107	-62.7642498744558	943.81368	52.42362968150604	-58.145185422765834	943.07111	-64.43842463225627	-71.44338261246442	1025.34849	-6.949751450628633	-33.1406211826889	1117.79916	-6.0147203171893695	-35.5472330068338	1234.75483	-7.489926363674393	-55.072826347708435	1339.60652	-9.759786649350968	47.23213510957816	1595.79513	-10.372677759747086	-98.47783934257798	1535.49798	-14.926778839049545	-80.59248019741776	1443.49286	-12.489229590083703	76.76417079320669	1471.26519	-6.870104014728777	-108.52479010338644	1594.45849	-13.26754966018652	-45.13921611747323	1862.37979	-12.856364270704288	-33.028623154116545	1756.78553	53.6428934069758	-68.28837430398802	1763.76574	-86.67194613921168	-105.80944643554804	1762.8004	-2.5251028528930264	-75.40294168575105	1578.12183	174.8592460398742	-63.34314327523978	1576.48816	-202.31675753616977	-42.367941588556334	1500.37415	448.6811674434902	12.729980592253327	1470.07706	434.1895268348517	-34.802654376747	1463.98794	-470.5131343812148	19.951110892963555	1434.58195	-453.22049773405365	76.24715008877206	1424.70569	680.1653421139173	68.3884585166009	1476.68599	693.034415197931	-14.281397453170428	1461.0919	431.3705459919761	-19.778986008827474	1384.16106	-716.9313513105168	-39.985320137136284	1433.69086	-725.5963939655729	0.528904129147179	1426.56213	-453.88724882401584	247.75323530750916	1418.83934	774.296948707827	177.0761385982488	1395.15118	715.2277711397251	113.06937152343465	1431.1661	684.7043437415299	26.348831856029904	1379.03729	-909.5500554947332	25.61409140621919	1357.42833	-816.940647705285	1.12842371257301	1392.32939	-749.876707202642	-9.786973225523937	971.14047	170.81321487892382	-55.88939617202922	529.82774	152.94199377430022	-52.37624125498168	526.26338	67.25291096311341	-5.994596002122535	526.18912	109.29402484652555	2.7787322127417156	970.62067	-179.31818537309692	-53.15910365275776	530.19903	-168.5697915886033	-55.779218039232035	525.96635	-82.79384034958764	-6.578678668723775	525.29803	-121.52643429910083	4.597911577943663	489.72866	111.29384353829244	-65.04739510380563	84.28233999999999	159.7446932197984	-62.48078918375017	81.38629	94.25948136325528	5.687284725402293	491.73361	-123.01920610150717	-43.2451973494118	84.35660000000001	-179.65206100747585	-45.175998264580095	80.79223	-114.22849572310386	-102.4806680334595	-7.14033523761536E-15	116.6105238275516	65.94226419040808	0.5197999999999917	135.73562805608344	39.16578703710951	3.490109999999987	210.48022693330387	74.08207564192216	2.227729999999989	179.70648105803008	-64.36250899699206	5.198029999999992	130.04353568539926	161.1031168303836	1.3366399999999872	210.91265639207091	-82.88626860439346	8.233123562730805E-15	-134.45711152738943	84.09246161564823	-0.74257999999999	-163.32571605183838	53.1107416365014	2.5990100000000145	-236.3472229420843	89.77925880534681	0.9653500000000128	-207.63105771673625	-45.58755108465581	4.9752600000000085	-150.05038532873448	174.82548540991615	-0.5197999999999852	-243.8461231878663	
